# xmcd
#
# Track frame offsets:
#	150
#	3610
#	23782
#	43930
#	65297
#	84032
#	100322
#	116132
#	136484
#	140672
#	165977
#	191559
#	208934
#	227147
#	241642
#	258377
#
# Disc length: 3709 seconds
#
# Revision: 2
# Processed by: cddbd v1.5.2PL0 Copyright (c) Steve Scherf et al.
# Submitted via: EasyCDDAExtractor 15.2.1.1
#
DISCID=d90e7b10
DTITLE=Usher - 8701 Special Edition
DYEAR=2005
DGENRE=R&B
TTITLE0=Intro-lude 8701
TTITLE1=U Remind Me
TTITLE2=I Don`t Know (featuring P.Diddy) 
TTITLE3=Twork It Out
TTITLE4=U Got It Bad
TTITLE5=Pop Ya Collar
TTITLE6=I Can`t Let U Go
TTITLE7=U Don`t Have To Call
TTITLE8=Without U (Interlude)
TTITLE9=Can U Help Me
TTITLE10=How Do I Say
TTITLE11=Hottest Thing
TTITLE12=Cood Oi`Ghetto
TTITLE13=U-Turn
TTITLE14=T.T.P.
TTITLE15=Separated
EXTD=
EXTT0=
EXTT1=
EXTT2=
EXTT3=
EXTT4=
EXTT5=
EXTT6=
EXTT7=
EXTT8=
EXTT9=
EXTT10=
EXTT11=
EXTT12=
EXTT13=
EXTT14=
EXTT15=
PLAYORDER=
